<svg width="140" height="78" viewBox="0 0 140 78" fill="none" xmlns="http://www.w3.org/2000/svg">
<g clip-path="url(#clip0_723_1987)">
<path d="M77.63 36.3439L133.981 28.6159L84.1611 45.4897L77.63 36.3439Z" fill="#CCCCCC"/>
<path d="M70.1337 25.576L64.04 51.9148L84.1611 45.4897L70.1337 25.576Z" fill="#F2F2F2" stroke="white" stroke-miterlimit="10"/>
<path d="M59.6206 53.6331L68.9119 25.3519L48.7154 40.7949L59.6206 53.6331Z" fill="#CCCCCC" stroke="white" stroke-miterlimit="10"/>
<path d="M60.7507 53.8405L62.9314 52.7954L67.9093 30.8184L60.7507 53.8405Z" fill="#B3B3B3"/>
<path d="M77.4038 63.3977C77.4038 63.3977 78.2409 65.7188 82.4189 63.595C82.4189 63.595 89.4251 59.8222 97.1779 69.1921C97.1779 69.1921 99.5912 73.2474 102.578 67.2923L137.06 29.1806L61.325 54.6683L77.4038 63.3977Z" fill="#E6E6E6" stroke="white" stroke-miterlimit="10"/>
<path d="M15.0043 4.26526L62.0816 29.7494L48.7154 40.7949L15.0043 4.26526Z" fill="#B3B3B3" stroke="white" stroke-width="0.75" stroke-miterlimit="10"/>
<path d="M11.7237 1.49597L30.0121 53.2604C30.0121 53.2604 33.5491 54.6316 34.8689 57.7639L58.2706 54.1081L11.7237 1.49597Z" fill="#CCCCCC" stroke="white" stroke-miterlimit="10"/>
<path d="M36.3841 59.0389L56.7937 55.2751C56.7937 55.2751 59.5547 54.3364 62.3221 56.289L76.0551 63.8656C76.0551 63.8656 81.5703 66.156 75.1317 66.1456C75.1317 66.1456 69.8612 66.3422 65.9941 63.4654C65.9941 63.4654 58.8828 54.2131 49.1767 58.9358C49.1767 58.9358 42.3955 63.3062 36.3841 59.0389Z" fill="#B3B3B3" stroke="white" stroke-miterlimit="10"/>
</g>
<defs>
<clipPath id="clip0_723_1987">
<rect width="130.349" height="54.7724" fill="white" transform="translate(10.8552) rotate(10.3932)"/>
</clipPath>
</defs>
</svg>
